<svg width="130" height="130" xmlns="http://www.w3.org/2000/svg" xmlns:xlink="http://www.w3.org/1999/xlink" xml:space="preserve" overflow="hidden"><defs><clipPath id="clip0"><rect x="2405" y="1406" width="130" height="130"/></clipPath></defs><g clip-path="url(#clip0)" transform="translate(-2405 -1406)"><path d="M2470 1406C2460.96 1406 2452.62 1407.74 2444.63 1411.21 2436.98 1414.34 2430.03 1419.21 2423.77 1425.12 2417.86 1431.03 2413.34 1437.98 2409.87 1445.63 2406.74 1453.62 2405 1462.31 2405 1471 2405 1479.69 2406.74 1488.38 2409.87 1496.37 2413.34 1504.02 2417.86 1510.97 2423.77 1516.88 2430.03 1523.14 2436.98 1527.66 2444.63 1530.79 2452.62 1534.26 2460.96 1536 2470 1536 2478.69 1536 2487.38 1534.26 2495.37 1530.79 2503.02 1527.66 2509.97 1523.14 2515.88 1516.88 2521.79 1510.97 2526.66 1504.02 2529.79 1496.37 2533.26 1488.38 2535 1479.69 2535 1471 2535 1462.31 2533.26 1453.62 2529.79 1445.63 2526.66 1437.98 2521.79 1431.03 2515.88 1425.12 2509.97 1419.21 2503.02 1414.34 2495.37 1411.21 2487.38 1407.74 2478.69 1406 2470 1406" fill="#FFFFFF" fill-rule="evenodd"/><path d="M2494.79 1447.8C2497.94 1447.8 2497.94 1447.8 2497.94 1447.8 2497.94 1474.05 2497.94 1474.05 2497.94 1474.05 2494.79 1474.05 2494.79 1474.05 2494.79 1474.05L2494.79 1447.8ZM2448 1474.05C2448 1457.6 2448 1457.6 2448 1457.6 2452.19 1465.65 2460.57 1471.25 2470 1471.25 2479.43 1471.25 2487.81 1465.65 2492 1457.6 2492 1474.05 2492 1474.05 2492 1474.05L2448 1474.05ZM2442.06 1447.8C2445.21 1447.8 2445.21 1447.8 2445.21 1447.8 2445.21 1474.05 2445.21 1474.05 2445.21 1474.05 2442.06 1474.05 2442.06 1474.05 2442.06 1474.05L2442.06 1447.8ZM2500.73 1457.95C2503.17 1462.85 2507.71 1466.7 2512.95 1469.15 2514 1466.7 2514 1466.7 2514 1466.7 2505.97 1463.2 2500.73 1455.15 2500.73 1446.4 2500.73 1445 2500.73 1445 2500.73 1445 2492 1445 2492 1445 2492 1445 2492 1446.4 2492 1446.4 2492 1446.4 2492 1458.3 2481.87 1468.45 2470 1468.45 2457.78 1468.45 2448 1458.3 2448 1446.4 2448 1445 2448 1445 2448 1445 2439.27 1445 2439.27 1445 2439.27 1445 2439.27 1446.4 2439.27 1446.4 2439.27 1446.4 2439.27 1455.15 2434.03 1463.2 2426 1466.7 2427.05 1469.15 2427.05 1469.15 2427.05 1469.15 2432.29 1466.7 2436.48 1462.85 2439.27 1457.95 2439.27 1474.05 2439.27 1474.05 2439.27 1474.05 2426.35 1474.05 2426.35 1474.05 2426.35 1474.05 2426.35 1476.85 2426.35 1476.85 2426.35 1476.85 2439.27 1476.85 2439.27 1476.85 2439.27 1476.85 2439.27 1494 2439.27 1494 2439.27 1494 2442.06 1494 2442.06 1494 2442.06 1494 2442.06 1476.85 2442.06 1476.85 2442.06 1476.85 2445.21 1476.85 2445.21 1476.85 2445.21 1476.85 2445.21 1494 2445.21 1494 2445.21 1494 2448 1494 2448 1494 2448 1494 2448 1476.85 2448 1476.85 2448 1476.85 2492 1476.85 2492 1476.85 2492 1476.85 2492 1494 2492 1494 2492 1494 2494.79 1494 2494.79 1494 2494.79 1494 2494.79 1476.85 2494.79 1476.85 2494.79 1476.85 2497.94 1476.85 2497.94 1476.85 2497.94 1476.85 2497.94 1494 2497.94 1494 2497.94 1494 2500.73 1494 2500.73 1494 2500.73 1494 2500.73 1476.85 2500.73 1476.85 2500.73 1476.85 2513.65 1476.85 2513.65 1476.85 2513.65 1476.85 2513.65 1474.05 2513.65 1474.05 2513.65 1474.05 2500.73 1474.05 2500.73 1474.05 2500.73 1474.05L2500.73 1457.95Z" fill="#612141" fill-rule="evenodd"/></g></svg>